<?xml version="1.0" encoding="utf-8"?>
<!-- Generator: Adobe Illustrator 22.0.1, SVG Export Plug-In . SVG Version: 6.00 Build 0)  -->
<svg version="1.1" id="Layer_1" xmlns="http://www.w3.org/2000/svg" xmlns:xlink="http://www.w3.org/1999/xlink" x="0px" y="0px"
	 viewBox="0 0 156 81" style="enable-background:new 0 0 156 81;" xml:space="preserve">
<style type="text/css">
	.st0{fill:#FFFFFF;}
</style>
<g>
	<path d="M0.1,81C0,80.1,0,79.1,0,78.2c0-43.1,34.9-78,78-78s78,34.9,78,78c0,0.9,0,1.9,0,2.8H0.1z"/>
</g>
<path class="st0" d="M19.8,61.5V59L18,59.6c-1.1,0.4-1.5,0.8-1.5,1.9c0,1.5,0.9,2.2,2.2,2.2c0.4,0,0.9-0.1,1.1-0.3
	C19.8,62.8,19.8,62.1,19.8,61.5 M23.5,66.7c-1.3,0-2.5-0.6-3.2-1.8c-1.2,1.2-2.3,1.8-4.2,1.8c-2.9,0-5.1-1.8-5.1-4.7
	c0-2.3,1.3-3.5,5.3-4.3l3.5-0.7v-1.6c0-1.8-0.4-2.7-1.9-2.7c-2,0-2.8,1.4-2.9,3.5c-2.6,0.1-3.2-1.1-3.2-2.1c0-2,2.6-4.3,8-4.3
	c3.9,0,5.5,2,5.5,5.8v5.1c0,2.1,0.6,2.9,2.2,3.3C27.1,65.9,25.5,66.7,23.5,66.7 M124.6,62.5c0,1.9-2.2,4.2-6.1,4.2
	c-4.8,0-7.6-2.5-7.6-7.6c0-5,3.2-9.3,8.4-9.3c3.3,0,4.9,1.5,4.9,3.3s-1.4,3.2-3.7,3c-0.1-2.3-0.4-3.4-1.6-3.4c-1.5,0-2.5,2-2.5,5
	s1.3,5.1,4.1,5.1c1.4,0,2.7-0.6,3.6-1.4C124.4,61.7,124.6,62,124.6,62.5 M49.4,46.8c1.4-0.8,3.7-1.4,5.7-1.6v5.1h3.8
	c0.1,0.4,0.2,0.7,0.2,1c0,1.2-1,2-2.9,2h-1.1v8.1c0,1.6,0.5,1.9,1.6,1.9c0.7,0,1.5-0.3,2-0.5c0.3,0.2,0.5,0.6,0.5,1c0,1.5-1.9,3-5,3
	c-3,0-4.7-1.1-4.7-4.6L49.4,46.8L49.4,46.8z M84.1,53.6c-0.2,1.5-1.6,1.9-2.9,1.4v-2.2c-0.6-0.2-1.4-0.4-2.1-0.4c-1.5,0-2,0.6-2,1.2
	c0,0.7,0.2,1.2,1.6,1.7l2.1,0.8c3.4,1.3,4.6,2.5,4.6,4.8c0,3.4-2.5,5.8-6.8,5.8c-4.7,0-6.8-1.4-6.8-3.8c0-1.1,0.6-2.8,3.3-2.6
	c0.2,2.1,1.4,3.5,3.6,3.5c1.4,0,2-0.6,2-1.3s-0.2-1.1-2.8-2.3l-2.3-1.1c-1.8-0.8-2.8-1.9-2.8-4c0-2.8,1.9-5.5,7.2-5.5
	c1.6,0,3.3,0.3,4.7,1L84.1,53.6z M103.5,46.8c-1.8,0-2.9-1.2-2.9-2.9c0-1.4,0.9-3,3.1-3c1.7,0,2.9,1.4,2.9,2.8
	C106.5,45.3,105.6,46.8,103.5,46.8 M106.4,53.3v8.1c0,1.6,0.5,1.9,1.6,1.9c0.7,0,1.5-0.3,2-0.5c0.3,0.2,0.5,0.6,0.5,1
	c0,1.5-1.9,3-5,3c-3,0-4.7-1.1-4.7-4.6c0-2.8,0.1-6.9,0.2-8.8l-2.2-0.3c-0.1-0.3-0.1-0.5-0.1-0.7c0-1,0.6-1.6,1.7-1.7l0.7-0.1
	l5.4-0.8v0.7L106.4,53.3z M65.3,46.8c-1.8,0-2.9-1.2-2.9-2.9c0-1.4,0.8-3,3.1-3c1.7,0,2.9,1.4,2.9,2.8
	C68.4,45.3,67.5,46.8,65.3,46.8 M68.5,66.2c-1.2,0-2.4-0.1-3.7-0.1c-2,0-4.2,0.1-4.2,0.1c-0.1-0.3-0.1-0.5-0.1-0.8
	c0-0.6,0.3-1.2,1.2-1.5l1.1-0.4V53.2l-2.3-0.3c-0.1-0.3-0.1-0.5-0.1-0.8c0-0.8,0.4-1.4,1.9-1.6l6.2-0.9v13.9l2.3,0.5
	C70.7,65.4,69.9,66.2,68.5,66.2 M97.8,63.7c0,1.5-1.9,3-5,3c-3,0-4.7-1.1-4.7-4.6c0-2.8,0.1-6.9,0.2-8.8L85.9,53
	c-0.1-0.3-0.1-0.5-0.1-0.7c0-1,0.6-1.6,1.7-1.7l1-0.1l0.2-3.6c1.4-0.8,3.3-1.4,5.3-1.6l-0.1,5.1h3.7c0.1,0.4,0.2,0.7,0.2,1
	c0,1.2-1,2-2.9,2h-1.1v8.1c0,1.6,0.5,1.9,1.6,1.9c0.7,0,1.5-0.3,2-0.5C97.6,62.9,97.8,63.3,97.8,63.7 M45.6,66.2l-5.9,0.5v-3
	c-1.8,2-3.5,3-5.6,3c-2.7,0-4.6-1.5-4.6-5.5v-8l-2.3-0.3c-0.1-0.3-0.1-0.5-0.1-0.8c0-0.8,0.4-1.4,1.9-1.6l6.2-0.9V59
	c0,2.6,1,3.3,2.7,3.3c0.6,0,1.3-0.1,1.9-0.3v-8.9l-2.3-0.3c-0.1-0.3-0.1-0.5-0.1-0.8c0-0.8,0.4-1.4,1.9-1.6l6.2-0.9v13.9l2.5,0.3
	C47.8,65.3,47.2,66.1,45.6,66.2 M136.7,53.1c-0.6-0.3-1.2-0.5-2-0.5c-1.9,0-3.2,1.8-3.2,5.1c0,3.5,1.6,5.5,4.1,5.5
	c0.4,0,0.9-0.1,1.1-0.2L136.7,53.1L136.7,53.1z M142.2,49.6v13.9l2.5,0.3c0,1.4-0.7,2.3-2.2,2.4l-5.9,0.5v-2.1
	c-1.5,1.4-2.9,2.1-4.9,2.1c-2.9,0-6.3-2.4-6.3-7.8c0-4.9,3.4-9.2,8.6-9.2c1.1,0,1.9,0.3,2.7,0.6C137.4,50.1,138.8,49.6,142.2,49.6"
	/>
</svg>
